<?xml version="1.0" encoding="UTF-8"?>
<svg id="Layer_2" data-name="Layer 2" xmlns="http://www.w3.org/2000/svg" viewBox="0 0 49.08 49.07">
  <defs>
    <style>
      .cls-1 {
        fill: #231f20;
      }
    </style>
  </defs>
  <g id="Layer_1-2" data-name="Layer 1">
    <path class="cls-1" d="m24.54,0C11.01.02.02,11.01,0,24.54c.02,13.53,11.01,24.52,24.54,24.53,13.52-.02,24.52-11.01,24.54-24.53C49.06,11.01,38.06.02,24.54,0Zm11.03,35.56c-2.85,2.84-6.74,4.59-11.03,4.59-4.29,0-8.18-1.75-11.03-4.59-2.85-2.85-4.59-6.73-4.59-11.03,0-4.29,1.75-8.18,4.59-11.03,2.85-2.85,6.74-4.59,11.03-4.59,4.29,0,8.18,1.75,11.03,4.59,2.85,2.85,4.59,6.74,4.59,11.03,0,4.29-1.75,8.18-4.59,11.03Z"/>
  </g>
</svg>