<?xml version="1.0" encoding="UTF-8"?>
<svg id="Layer_2" data-name="Layer 2" xmlns="http://www.w3.org/2000/svg" viewBox="0 0 49.08 49.08">
  <defs>
    <style>
      .cls-1 {
        fill: #231f20;
      }
    </style>
  </defs>
  <g id="Layer_1-2" data-name="Layer 1">
    <path class="cls-1" d="m37.12,0H11.96C5.35.02.02,5.35,0,11.96v25.16c.02,6.61,5.35,11.94,11.96,11.96h25.16c6.61-.02,11.94-5.35,11.96-11.96V11.96c-.02-6.61-5.35-11.94-11.96-11.96Zm3.05,37.11c0,.83-.33,1.58-.9,2.15-.57.57-1.31.9-2.15.9H11.96c-.83,0-1.57-.33-2.15-.9-.57-.57-.9-1.31-.9-2.15V11.96c0-.83.33-1.57.9-2.15.57-.56,1.31-.9,2.15-.9h25.16c.84,0,1.58.33,2.15.9.57.57.9,1.31.9,2.15v25.16Z"/>
  </g>
</svg>