<?xml version="1.0" encoding="UTF-8"?>
<svg id="Layer_2" data-name="Layer 2" xmlns="http://www.w3.org/2000/svg" viewBox="0 0 231.04 231.03">
  <defs>
    <style>
      .cls-1 {
        fill: #22333b;
      }
    </style>
  </defs>
  <g id="Layer_2-2" data-name="Layer 2">
    <g id="Layer_1-2" data-name="Layer 1-2">
      <g>
        <path class="cls-1" d="m93.49,57.39h44.04c-.93-4.05-1.95-7.87-3.06-11.42-5.2-16.64-11.93-26.94-18.97-26.94s-13.76,10.3-18.97,26.94c-1.11,3.54-2.13,7.37-3.06,11.42h.02Z"/>
        <path class="cls-1" d="m92.14,167.22h46.75c2.73-14.15,4.37-30.71,4.55-48.48h-55.85c.18,17.77,1.82,34.33,4.55,48.48Z"/>
        <path class="cls-1" d="m68.57,46.86c-2.31,3.28-4.45,6.8-6.41,10.53h24.75c1.05-4.76,2.22-9.22,3.51-13.32,3-9.6,6.68-17.39,10.86-22.82-12.57,3.96-23.85,13.02-32.7,25.62h-.01Z"/>
        <path class="cls-1" d="m48.67,118.74c.41,17.8,4.16,34.38,10.4,48.48h26.54c-2.67-14.28-4.27-30.82-4.44-48.48h-32.5Z"/>
        <path class="cls-1" d="m59.07,63.82c-6.24,14.1-9.99,30.68-10.4,48.48h32.49c.17-17.66,1.77-34.2,4.44-48.48h-26.54,0Z"/>
        <path class="cls-1" d="m138.89,63.82h-46.75c-2.73,14.15-4.37,30.71-4.55,48.48h55.85c-.18-17.77-1.82-34.33-4.55-48.48Z"/>
        <path class="cls-1" d="m144.12,57.39h24.75c-1.96-3.73-4.1-7.24-6.41-10.53-8.86-12.59-20.14-21.66-32.71-25.62,4.18,5.43,7.86,13.22,10.86,22.82,1.28,4.11,2.46,8.57,3.51,13.32h0Z"/>
        <path class="cls-1" d="m188.8,112.3h23.15c-.58-17.8-5.99-34.39-14.95-48.48h-18.05c5.92,14.33,9.47,30.85,9.85,48.48Z"/>
        <path class="cls-1" d="m145.43,167.22h26.54c6.24-14.1,9.99-30.68,10.4-48.48h-32.49c-.17,17.66-1.77,34.2-4.44,48.48h0Z"/>
        <path class="cls-1" d="m167.71,43.17c3.07,4.37,5.86,9.13,8.34,14.22h16.47c-2.7-3.57-5.63-6.94-8.78-10.1-9-9-19.78-16.22-31.76-21.12,5.79,4.66,11.07,10.39,15.73,17Z"/>
        <path class="cls-1" d="m171.97,63.82h-26.54c2.67,14.29,4.27,30.82,4.44,48.48h32.49c-.41-17.81-4.16-34.38-10.4-48.48h0Z"/>
        <path class="cls-1" d="m162.46,184.17c2.3-3.28,4.45-6.8,6.41-10.52h-24.75c-1.05,4.76-2.22,9.22-3.51,13.32-3,9.6-6.68,17.39-10.86,22.82,12.57-3.96,23.85-13.02,32.71-25.62h0Z"/>
        <path class="cls-1" d="m167.71,187.87c-4.65,6.62-9.94,12.35-15.73,17,11.98-4.89,22.75-12.12,31.76-21.12,3.15-3.16,6.09-6.53,8.78-10.09h-16.47c-2.48,5.09-5.27,9.85-8.34,14.22h0Z"/>
        <path class="cls-1" d="m137.54,173.65h-44.04c.93,4.05,1.95,7.87,3.06,11.41,5.2,16.65,11.93,26.94,18.97,26.94s13.76-10.3,18.97-26.94c1.11-3.54,2.13-7.36,3.06-11.41h-.02Z"/>
        <path class="cls-1" d="m178.95,167.22h18.05c8.96-14.1,14.37-30.68,14.95-48.48h-23.15c-.39,17.63-3.93,34.16-9.85,48.48Z"/>
        <path class="cls-1" d="m42.23,118.74h-23.15c.58,17.8,5.99,34.39,14.95,48.48h18.05c-5.92-14.32-9.47-30.85-9.85-48.48Z"/>
        <path class="cls-1" d="m63.32,43.17c4.65-6.62,9.94-12.35,15.73-17-11.98,4.89-22.75,12.12-31.76,21.12-3.15,3.16-6.09,6.53-8.78,10.1h16.47c2.48-5.09,5.27-9.85,8.34-14.22Z"/>
        <path class="cls-1" d="m86.91,173.65h-24.75c1.96,3.73,4.1,7.24,6.41,10.52,8.86,12.6,20.13,21.67,32.7,25.62-4.18-5.43-7.86-13.22-10.86-22.82-1.28-4.11-2.46-8.57-3.51-13.32h.01Z"/>
        <path class="cls-1" d="m52.08,63.82h-18.05c-8.97,14.1-14.37,30.68-14.95,48.48h23.15c.39-17.63,3.93-34.16,9.85-48.48Z"/>
        <path class="cls-1" d="m63.32,187.87c-3.07-4.37-5.86-9.13-8.34-14.22h-16.47c2.7,3.57,5.63,6.94,8.78,10.09,9,9,19.78,16.23,31.76,21.12-5.79-4.65-11.07-10.38-15.73-17h0Z"/>
        <path class="cls-1" d="m224.35,115.52h-6.69c0,28.23-11.42,53.72-29.92,72.22-18.51,18.49-44,29.91-72.23,29.92-28.23,0-53.72-11.42-72.23-29.92-18.49-18.51-29.91-44-29.92-72.22,0-28.23,11.42-53.72,29.92-72.23,18.51-18.5,44-29.91,72.23-29.92,28.23,0,53.72,11.42,72.23,29.92,18.49,18.51,29.91,44,29.92,72.23h13.37C231.03,51.71,179.32,0,115.52,0S0,51.71,0,115.52s51.71,115.51,115.52,115.51,115.51-51.71,115.52-115.51h-6.69,0Z"/>
      </g>
    </g>
  </g>
</svg>