<?xml version="1.0" standalone="no"?>
<!DOCTYPE svg PUBLIC "-//W3C//DTD SVG 20010904//EN"
 "http://www.w3.org/TR/2001/REC-SVG-20010904/DTD/svg10.dtd">
<svg version="1.0" xmlns="http://www.w3.org/2000/svg"
 width="289.000000pt" height="284.000000pt" viewBox="0 0 289.000000 284.000000"
 preserveAspectRatio="xMidYMid meet">

<g transform="translate(0.000000,284.000000) scale(0.100000,-0.100000)"
fill="#000000" stroke="none">
<path d="M482 1628 l3 -723 23 -65 c95 -262 352 -470 664 -535 127 -27 131
-16 15 40 -118 57 -222 161 -276 276 -21 46 -44 107 -51 134 -18 76 -27 1220
-10 1240 11 13 43 16 205 15 105 -1 196 -5 203 -9 8 -5 12 -163 14 -592 l3
-585 27 -42 c71 -106 225 -107 295 -1 l28 43 5 590 5 591 205 -3 205 -3 3
-601 c2 -662 3 -655 -60 -787 -46 -97 -167 -216 -271 -266 -96 -45 -92 -63 9
-40 358 82 628 326 679 612 11 61 14 221 15 756 l0 677 -430 0 -430 0 -45 -41
c-25 -23 -48 -52 -51 -65 -8 -33 -17 -30 -37 10 -8 19 -33 47 -53 63 l-37 28
-429 3 -429 3 3 -723z"/>
</g>
</svg>
