<?xml version="1.0" encoding="UTF-8"?>
<svg id="Layer_2" data-name="Layer 2" xmlns="http://www.w3.org/2000/svg" viewBox="0 0 433.52 310.75">
  <defs>
    <style>
      .cls-1 {
        fill: #22333b;
      }
    </style>
  </defs>
  <g id="Layer_2-2" data-name="Layer 2">
    <g id="Layer_1-2" data-name="Layer 1-2">
      <path class="cls-1" d="m432.41,26.22c-7.22-12.98-48.94-3.31-107.1,22.11C278.73-2.57,203.03-15.8,141.86,20.83c-61.17,36.64-87.97,111.25-68.75,178.54C22.81,238.9-6.13,271.55,1.1,284.53c7.22,12.98,48.94,3.31,107.1-22.11,46.58,50.9,122.27,64.14,183.45,27.5,61.17-36.64,87.97-111.25,68.75-178.54,50.3-39.54,79.24-72.18,72.02-85.16h-.01ZM50.78,254.77c-3.04-5.46,8.06-18.77,28.98-36.56,2.15,5.02,4.56,9.98,7.26,14.85,2.72,4.86,5.65,9.51,8.76,13.95-25.31,9.91-41.97,13.22-45.01,7.76h0Zm51.08-30.6c-3.15-5.66-5.84-11.45-8.13-17.34-2.41-6.19-4.35-12.47-5.85-18.82-5.37-22.74-4.96-46.21.73-68.26,8.8-34.04,30.06-64.54,61.81-83.55,31.75-19.01,67.83-22.85,100.66-13.75,21.25,5.91,41.05,17.27,57.35,33.47,4.55,4.52,8.82,9.41,12.78,14.67,3.77,5.01,7.26,10.32,10.41,15.97,3.15,5.66,5.83,11.45,8.13,17.34-27.56,21.65-66.24,47.97-110.28,74.34-44.03,26.37-85.35,47.96-117.21,61.9-3.77-5.01-7.26-10.32-10.41-15.97h0Zm243.02-33.17c-8.8,34.04-30.06,64.54-61.81,83.55-31.75,19.01-67.84,22.85-100.66,13.75-21.25-5.91-41.05-17.27-57.35-33.47,34.2-15.86,73.02-36.44,113.31-60.57,40.31-24.14,76.89-48.72,107.23-71.51,5.37,22.74,4.96,46.21-.73,68.26h.01Zm8.85-98.46c-2.15-5.02-4.56-9.98-7.26-14.84-2.7-4.86-5.65-9.51-8.76-13.95,25.31-9.91,41.97-13.22,45.01-7.76,3.04,5.45-8.06,18.77-28.98,36.55h0Z"/>
    </g>
  </g>
</svg>